<svg width="221" height="204" viewBox="0 0 221 204" fill="none" xmlns="http://www.w3.org/2000/svg">
<path d="M164.193 199.832V119.037C164.193 117.38 162.854 116.026 161.205 116.192C148.449 117.474 127.697 127.046 127.697 158.191C127.697 189.166 148.224 200.333 160.997 202.649C162.713 202.96 164.193 201.577 164.193 199.832Z" fill="#FF4F8B" stroke="#FF4F8B"/>
<path d="M182.44 199.832V119.037C182.44 117.38 183.779 116.026 185.428 116.192C198.184 117.474 218.936 127.046 218.936 158.191C218.936 189.166 198.409 200.333 185.636 202.649C183.92 202.96 182.44 201.577 182.44 199.832Z" fill="#FF4F8B" stroke="#FF4F8B"/>
<path d="M89.1054 201.9L59.0318 201.793C57.3791 201.787 56.0425 200.446 56.0425 198.793L56.0425 170.793C56.0425 168.169 59.1737 166.81 61.0909 168.601L91.1645 196.708C93.1569 198.57 91.8325 201.909 89.1054 201.9Z" fill="#FF4F8B" stroke="#FF4F8B"/>
<path d="M89.1054 116.13L59.0318 116.237C57.3791 116.243 56.0425 117.584 56.0425 119.237V147.237C56.0425 149.861 59.1737 151.22 61.0909 149.429L91.1645 121.322C93.1569 119.46 91.8325 116.121 89.1054 116.13Z" fill="#FF4F8B" stroke="#FF4F8B"/>
<path d="M37.8624 199.832V119.037C37.8624 117.38 36.5234 116.026 34.8749 116.192C22.1189 117.474 1.36694 127.046 1.36694 158.191C1.36694 189.166 21.894 200.332 34.6663 202.649C36.3829 202.96 37.8624 201.577 37.8624 199.832Z" fill="#FF4F8B" stroke="#FF4F8B"/>
<path d="M165.596 84.7314V3.93579C165.596 2.27894 164.257 0.925547 162.609 1.09119C149.853 2.37289 129.101 11.9451 129.101 43.0897C129.101 74.0652 149.628 85.2316 162.4 87.5481C164.117 87.8595 165.596 86.4761 165.596 84.7314Z" fill="#FF4F8B" stroke="#FF4F8B"/>
<path d="M183.844 84.7314V3.93579C183.844 2.27894 185.183 0.925547 186.831 1.09119C199.587 2.37289 220.339 11.9451 220.339 43.0897C220.339 74.0652 199.812 85.2316 187.04 87.5481C185.323 87.8595 183.844 86.4761 183.844 84.7314Z" fill="#FF4F8B" stroke="#FF4F8B"/>
<path d="M1.36694 46.0751V3.93579C1.36694 2.27894 2.71009 0.935791 4.36695 0.935791H33.5403C35.9603 0.935791 37.3844 3.65373 36.0069 5.64342L6.83352 47.7827C5.15941 50.2009 1.36694 49.0162 1.36694 46.0751Z" fill="#FF4F8B" stroke="#FF4F8B"/>
<path d="M89.7981 44.2276V86.367C89.7981 88.0238 88.4549 89.367 86.7981 89.367H57.6247C55.2047 89.367 53.7807 86.649 55.1581 84.6593L84.3315 42.52C86.0056 40.1019 89.7981 41.2865 89.7981 44.2276Z" fill="#FF4F8B" stroke="#FF4F8B"/>
<path d="M84.1926 0.935791H61.9266C60.9236 0.935791 59.9869 1.4371 59.4305 2.27169L4.47634 84.7029C3.14723 86.6965 4.57641 89.367 6.9725 89.367H29.2385C30.2415 89.367 31.1782 88.8657 31.7346 88.0311L86.6887 5.59989C88.0178 3.60623 86.5887 0.935791 84.1926 0.935791Z" fill="#FF4F8B" stroke="#FF4F8B"/>
</svg>
