<svg width="480" height="92" viewBox="0 0 480 92" fill="none" xmlns="http://www.w3.org/2000/svg">
<path d="M424.541 87.6856V6.88991C424.541 5.23305 423.202 3.87966 421.554 4.04531C408.798 5.32701 388.046 14.8992 388.046 46.0439C388.046 77.0193 408.573 88.1857 421.345 90.5022C423.062 90.8136 424.541 89.4302 424.541 87.6856Z" fill="#FF4F8B" stroke="#FF4F8B"/>
<path d="M442.789 87.6856V6.88991C442.789 5.23305 444.128 3.87966 445.776 4.04531C458.532 5.32701 479.284 14.8992 479.284 46.0439C479.284 77.0193 458.757 88.1857 445.985 90.5022C444.268 90.8136 442.789 89.4302 442.789 87.6856Z" fill="#FF4F8B" stroke="#FF4F8B"/>
<path d="M343.84 86.951L313.766 86.8443C312.114 86.8384 310.777 85.497 310.777 83.8443V55.8446C310.777 53.2205 313.908 51.861 315.825 53.6528L345.899 81.7592C347.891 83.6213 346.567 86.9606 343.84 86.951Z" fill="#FF4F8B" stroke="#FF4F8B"/>
<path d="M343.84 1.18174L313.766 1.28842C312.114 1.29428 310.777 2.6357 310.777 4.2884V32.2881C310.777 34.9122 313.908 36.2717 315.825 34.4799L345.899 6.37352C347.891 4.51145 346.567 1.17207 343.84 1.18174Z" fill="#FF4F8B" stroke="#FF4F8B"/>
<path d="M292.596 84.8837V4.08804C292.596 2.43119 291.257 1.0778 289.609 1.24344C276.853 2.52515 256.101 12.0973 256.101 43.242C256.101 74.2175 276.628 85.3839 289.4 87.7004C291.117 88.0117 292.596 86.6284 292.596 84.8837Z" fill="#FF4F8B" stroke="#FF4F8B"/>
<path d="M163.459 84.8782V4.08257C163.459 2.42571 162.12 1.07232 160.471 1.23797C147.715 2.51967 126.963 12.0918 126.963 43.2365C126.963 74.212 147.49 85.3784 160.263 87.6949C161.979 88.0062 163.459 86.6229 163.459 84.8782Z" fill="#FF4F8B" stroke="#FF4F8B"/>
<path d="M181.706 84.8782V4.08257C181.706 2.42571 183.045 1.07232 184.694 1.23797C197.45 2.51967 218.202 12.0918 218.202 43.2365C218.202 74.212 197.675 85.3784 184.903 87.6949C183.186 88.0062 181.706 86.6229 181.706 84.8782Z" fill="#FF4F8B" stroke="#FF4F8B"/>
<path d="M0.633057 46.2219V4.08258C0.633057 2.42573 1.9762 1.08258 3.63306 1.08258H32.8064C35.2264 1.08258 36.6505 3.80052 35.273 5.79021L6.09963 47.9295C4.42552 50.3477 0.633057 49.163 0.633057 46.2219Z" fill="#FF4F8B" stroke="#FF4F8B"/>
<path d="M89.0642 44.3744V86.5138C89.0642 88.1706 87.7211 89.5138 86.0642 89.5138H56.8908C54.4708 89.5138 53.0468 86.7958 54.4243 84.8061L83.5976 42.6668C85.2717 40.2487 89.0642 41.4333 89.0642 44.3744Z" fill="#FF4F8B" stroke="#FF4F8B"/>
<path d="M83.4587 1.08258H61.1927C60.1897 1.08258 59.253 1.58389 58.6966 2.41848L3.74246 84.8497C2.41335 86.8433 3.84252 89.5138 6.23861 89.5138H28.5046C29.5076 89.5138 30.4443 89.0125 31.0007 88.1779L85.9548 5.74668C87.284 3.75302 85.8548 1.08258 83.4587 1.08258Z" fill="#FF4F8B" stroke="#FF4F8B"/>
</svg>
